ply
format ascii 1.0
element vertex 52
property float x
property float y
property float z
element face 45
property list uchar uint vertex_indices
element cornerrectangle 1
property list uchar uchar surfacename
property uint rightup
property uint leftup
property uint leftdown
property uint rightdown
property list uchar uchar vertexlist
end_header
1.000000e+00 1.000000e+00 1.000000e+00
1.000000e+00 1.000000e+00 -1.000000e+00
1.000000e+00 -1.000000e+00 1.000000e+00
1.000000e+00 -1.000000e+00 -1.000000e+00
-1.000000e+00 1.000000e+00 1.000000e+00
-1.000000e+00 1.000000e+00 -1.000000e+00
-1.000000e+00 -1.000000e+00 1.000000e+00
-1.000000e+00 -1.000000e+00 -1.000000e+00
-1.000000e+00 3.333333e-01 -1.000000e+00
-1.000000e+00 -3.333333e-01 -1.000000e+00
3.333333e-01 1.000000e+00 -1.000000e+00
-3.333333e-01 1.000000e+00 -1.000000e+00
1.000000e+00 1.000000e+00 3.333333e-01
1.000000e+00 1.000000e+00 -3.333333e-01
-1.000000e+00 -1.000000e+00 -3.333333e-01
-1.000000e+00 -1.000000e+00 3.333333e-01
1.000000e+00 -1.000000e+00 3.333333e-01
1.000000e+00 -1.000000e+00 -3.333333e-01
-1.000000e+00 1.000000e+00 3.333333e-01
-1.000000e+00 1.000000e+00 -3.333333e-01
3.333333e-01 -1.000000e+00 1.000000e+00
-3.333333e-01 -1.000000e+00 1.000000e+00
1.000000e+00 3.333333e-01 1.000000e+00
1.000000e+00 -3.333333e-01 1.000000e+00
-3.333333e-01 -1.000000e+00 -1.000000e+00
3.333333e-01 -1.000000e+00 -1.000000e+00
-1.000000e+00 -3.333333e-01 1.000000e+00
-1.000000e+00 3.333333e-01 1.000000e+00
-3.333333e-01 1.000000e+00 1.000000e+00
3.333333e-01 1.000000e+00 1.000000e+00
1.000000e+00 -3.333333e-01 -1.000000e+00
1.000000e+00 3.333333e-01 -1.000000e+00
-3.333333e-01 1.000000e+00 -3.333333e-01
3.333333e-01 1.000000e+00 -3.333333e-01
-3.333333e-01 1.000000e+00 3.333333e-01
3.333333e-01 1.000000e+00 3.333333e-01
-3.333333e-01 3.333333e-01 -1.000000e+00
-3.333333e-01 -3.333333e-01 -1.000000e+00
3.333333e-01 3.333333e-01 -1.000000e+00
3.333333e-01 -3.333333e-01 -1.000000e+00
-1.000000e+00 -3.333333e-01 -3.333333e-01
-1.000000e+00 3.333333e-01 -3.333333e-01
-1.000000e+00 -3.333333e-01 3.333333e-01
-1.000000e+00 3.333333e-01 3.333333e-01
3.333333e-01 -1.000000e+00 -3.333333e-01
-3.333333e-01 -1.000000e+00 -3.333333e-01
3.333333e-01 -1.000000e+00 3.333333e-01
-3.333333e-01 -1.000000e+00 3.333333e-01
3.333333e-01 3.333333e-01 1.000000e+00
3.333333e-01 -3.333333e-01 1.000000e+00
-3.333333e-01 3.333333e-01 1.000000e+00
-3.333333e-01 -3.333333e-01 1.000000e+00
4 51 26 6 21
4 47 21 6 15
4 43 27 4 18
4 39 30 3 25
4 35 29 0 12
4 10 33 13 1
4 33 35 12 13
4 5 19 32 11
4 11 32 33 10
4 19 18 34 32
4 32 34 35 33
4 18 4 28 34
4 34 28 29 35
4 9 37 24 7
4 37 39 25 24
4 5 11 36 8
4 8 36 37 9
4 11 10 38 36
4 36 38 39 37
4 10 1 31 38
4 38 31 30 39
4 8 41 19 5
4 41 43 18 19
4 7 14 40 9
4 9 40 41 8
4 14 15 42 40
4 40 42 43 41
4 15 6 26 42
4 42 26 27 43
4 24 45 14 7
4 45 47 15 14
4 3 17 44 25
4 25 44 45 24
4 17 16 46 44
4 44 46 47 45
4 16 2 20 46
4 46 20 21 47
4 23 49 20 2
4 49 51 21 20
4 0 29 48 22
4 22 48 49 23
4 29 28 50 48
4 48 50 51 49
4 28 4 27 50
4 50 27 26 51
8 85 110 116 105 116 108 101 100 0 2 3 1 52 0 1 2 3 4 5 6 7 8 9 10 11 12 13 14 15 16 17 18 19 20 21 22 23 24 25 26 27 28 29 30 31 32 33 34 35 36 37 38 39 40 41 42 43 44 45 46 47 48 49 50 51