ply
format ascii 1.0
element vertex 8
property float x
property float y
property float z
element face 5
property list uchar uint vertex_indices
element cornerrectangle 1
property uint rightup
property uint leftup
property uint leftdown
property uint rightdown
property list uchar uchar vertexlist
property uint ulength
property uint vlength
property uchar numbercoordinates
property list uint float datamatrix
end_header
0.000000e+00 0.000000e+00 0.000000e+00
0.000000e+00 0.000000e+00 1.000000e+00
0.000000e+00 1.000000e-01 1.000000e+00
0.000000e+00 1.000000e-01 0.000000e+00
1.000000e+00 0.000000e+00 0.000000e+00
1.000000e+00 0.000000e+00 1.000000e+00
1.000000e+00 1.000000e-01 1.000000e+00
1.000000e+00 1.000000e-01 0.000000e+00
4 0 1 2 3
4 7 6 5 4
4 1 5 6 2
4 2 6 7 3
4 3 7 4 0
5 4 0 1 8 0 1 2 3 4 5 6 7 15 15 3 675 0.000000e+00 0.000000e+00 1.000000e+00 0.000000e+00 0.000000e+00 9.285714e-01 0.000000e+00 0.000000e+00 8.571429e-01 0.000000e+00 0.000000e+00 7.857143e-01 0.000000e+00 0.000000e+00 7.142857e-01 0.000000e+00 0.000000e+00 6.428571e-01 0.000000e+00 0.000000e+00 5.714286e-01 0.000000e+00 0.000000e+00 5.000000e-01 0.000000e+00 0.000000e+00 4.285714e-01 0.000000e+00 0.000000e+00 3.571429e-01 0.000000e+00 0.000000e+00 2.857143e-01 0.000000e+00 0.000000e+00 2.142857e-01 0.000000e+00 0.000000e+00 1.428571e-01 0.000000e+00 0.000000e+00 7.142857e-02 0.000000e+00 0.000000e+00 0.000000e+00 7.142857e-02 0.000000e+00 1.000000e+00 6.283398e-04 2.931282e-02 9.994293e-01 0.000000e+00 4.446158e-02 8.916202e-01 0.000000e+00 4.851475e-02 8.050976e-01 0.000000e+00 4.960197e-02 7.259240e-01 0.000000e+00 4.989147e-02 6.496299e-01 0.000000e+00 4.996630e-02 5.745636e-01 0.000000e+00 4.997937e-02 4.999699e-01 0.000000e+00 4.995662e-02 4.253771e-01 0.000000e+00 4.985159e-02 3.503105e-01 0.000000e+00 4.945009e-02 2.740145e-01 0.000000e+00 4.793766e-02 1.948131e-01 0.000000e+00 4.227628e-02 1.081925e-01 4.858272e-02 2.113869e-02 0.000000e+00 7.142857e-02 0.000000e+00 0.000000e+00 1.428571e-01 0.000000e+00 1.000000e+00 1.083903e-01 4.446156e-02 1.000000e+00 9.520475e-02 1.000000e-01 9.048127e-01 8.954101e-02 1.000000e-01 8.171412e-01 8.686335e-02 1.000000e-01 7.346740e-01 8.554689e-02 1.000000e-01 6.551761e-01 8.495320e-02 1.000000e-01 5.772319e-01 8.482777e-02 1.000000e-01 4.999535e-01 8.511971e-02 1.000000e-01 4.226762e-01 8.595563e-02 1.000000e-01 3.447349e-01 8.774110e-02 1.000000e-01 2.652386e-01 9.152406e-02 1.000000e-01 1.827739e-01 1.002049e-01 1.000000e-01 9.510144e-02 1.228903e-01 4.227629e-02 0.000000e+00 1.428571e-01 0.000000e+00 0.000000e+00 2.142857e-01 0.000000e+00 1.000000e+00 1.949143e-01 4.851488e-02 1.000000e+00 1.828909e-01 1.000000e-01 9.104940e-01 1.761068e-01 1.000000e-01 8.239591e-01 1.723653e-01 1.000000e-01 7.404571e-01 1.703672e-01 1.000000e-01 6.591694e-01 1.694288e-01 1.000000e-01 5.792416e-01 1.692283e-01 1.000000e-01 4.999531e-01 1.696869e-01 1.000000e-01 4.206639e-01 1.709614e-01 1.000000e-01 3.407406e-01 1.734896e-01 1.000000e-01 2.594628e-01 1.781398e-01 1.000000e-01 1.759727e-01 1.864180e-01 1.000000e-01 8.946060e-02 1.999172e-01 4.793767e-02 0.000000e+00 2.142857e-01 0.000000e+00 0.000000e+00 2.857143e-01 0.000000e+00 1.000000e+00 2.740917e-01 4.960218e-02 1.000000e+00 2.653693e-01 1.000000e-01 9.131976e-01 2.596330e-01 1.000000e-01 8.277487e-01 2.561221e-01 1.000000e-01 7.440319e-01 2.541231e-01 1.000000e-01 6.618102e-01 2.531520e-01 1.000000e-01 5.806263e-01 2.529435e-01 1.000000e-01 4.999606e-01 2.534263e-01 1.000000e-01 4.192994e-01 2.547107e-01 1.000000e-01 3.381233e-01 2.571170e-01 1.000000e-01 2.559150e-01 2.611501e-01 1.000000e-01 1.722117e-01 2.674052e-01 1.000000e-01 8.677985e-02 2.760782e-01 4.944995e-02 0.000000e+00 2.857143e-01 0.000000e+00 0.000000e+00 3.571429e-01 0.000000e+00 1.000000e+00 3.503874e-01 4.989144e-02 1.000000e+00 3.448735e-01 1.000000e-01 9.145485e-01 3.409352e-01 1.000000e-01 8.298101e-01 3.383690e-01 1.000000e-01 7.461120e-01 3.368399e-01 1.000000e-01 6.634279e-01 3.360869e-01 1.000000e-01 5.815021e-01 3.359400e-01 1.000000e-01 4.999840e-01 3.363328e-01 1.000000e-01 4.184727e-01 3.373347e-01 1.000000e-01 3.365628e-01 3.391224e-01 1.000000e-01 2.538904e-01 3.419462e-01 1.000000e-01 1.701997e-01 3.460163e-01 1.000000e-01 8.545799e-02 3.512756e-01 4.985104e-02 0.000000e+00 3.571429e-01 0.000000e+00 0.000000e+00 4.285714e-01 0.000000e+00 1.000000e+00 4.254523e-01 4.996652e-02 1.000000e+00 4.228183e-01 1.000000e-01 9.151884e-01 4.208678e-01 1.000000e-01 8.308291e-01 4.195619e-01 1.000000e-01 7.471846e-01 4.187773e-01 1.000000e-01 6.642871e-01 4.183984e-01 1.000000e-01 5.819863e-01 4.183499e-01 1.000000e-01 5.000214e-01 4.185976e-01 1.000000e-01 4.180658e-01 4.191540e-01 1.000000e-01 3.357854e-01 4.200968e-01 1.000000e-01 2.529040e-01 4.215135e-01 1.000000e-01 1.692511e-01 4.234671e-01 1.000000e-01 8.486103e-02 4.258944e-01 4.995511e-02 0.000000e+00 4.285714e-01 0.000000e+00 0.000000e+00 5.000000e-01 0.000000e+00 1.000000e+00 5.000389e-01 4.997952e-02 1.000000e+00 5.000890e-01 1.000000e-01 9.153773e-01 5.001515e-01 1.000000e-01 8.311356e-01 5.002246e-01 1.000000e-01 7.475157e-01 5.002917e-01 1.000000e-01 6.645623e-01 5.003629e-01 1.000000e-01 5.821638e-01 5.004369e-01 1.000000e-01 5.000798e-01 5.005036e-01 1.000000e-01 4.180054e-01 5.005583e-01 1.000000e-01 3.356319e-01 5.005829e-01 1.000000e-01 2.526921e-01 5.005612e-01 1.000000e-01 1.690508e-01 5.004707e-01 1.000000e-01 8.473562e-02 5.002824e-01 4.997577e-02 0.000000e+00 5.000000e-01 0.000000e+00 0.000000e+00 5.714286e-01 0.000000e+00 1.000000e+00 5.746193e-01 4.995774e-02 1.000000e+00 5.773440e-01 1.000000e-01 9.151855e-01 5.794204e-01 1.000000e-01 8.308284e-01 5.808710e-01 1.000000e-01 7.471918e-01 5.817943e-01 1.000000e-01 6.643217e-01 5.823121e-01 1.000000e-01 5.820670e-01 5.825083e-01 1.000000e-01 5.001625e-01 5.824001e-01 1.000000e-01 4.182713e-01 5.819585e-01 1.000000e-01 3.360437e-01 5.810990e-01 1.000000e-01 2.531928e-01 5.796800e-01 1.000000e-01 1.695226e-01 5.775862e-01 1.000000e-01 8.503486e-02 5.747674e-01 4.995511e-02 0.000000e+00 5.714286e-01 0.000000e+00 0.000000e+00 6.428571e-01 0.000000e+00 1.000000e+00 6.496552e-01 4.986121e-02 1.000000e+00 6.552478e-01 1.000000e-01 9.145411e-01 6.593061e-01 1.000000e-01 8.298078e-01 6.620161e-01 1.000000e-01 7.461378e-01 6.636809e-01 1.000000e-01 6.635061e-01 6.645770e-01 1.000000e-01 5.816686e-01 6.648704e-01 1.000000e-01 5.002643e-01 6.646224e-01 1.000000e-01 4.188765e-01 6.637750e-01 1.000000e-01 3.370897e-01 6.621573e-01 1.000000e-01 2.545137e-01 6.594829e-01 1.000000e-01 1.708238e-01 6.554215e-01 1.000000e-01 8.588470e-02 6.497714e-01 4.985105e-02 0.000000e+00 6.428571e-01 0.000000e+00 0.000000e+00 7.142857e-01 0.000000e+00 1.000000e+00 7.258730e-01 4.948008e-02 1.000000e+00 7.346763e-01 1.000000e-01 9.131742e-01 7.405312e-01 1.000000e-01 8.277390e-01 7.441786e-01 1.000000e-01 7.440710e-01 7.463110e-01 1.000000e-01 6.619344e-01 7.474165e-01 1.000000e-01 5.808709e-01 7.477670e-01 1.000000e-01 5.003579e-01 7.474414e-01 1.000000e-01 4.198865e-01 7.463685e-01 1.000000e-01 3.389393e-01 7.442785e-01 1.000000e-01 2.569698e-01 7.406760e-01 1.000000e-01 1.733871e-01 7.348508e-01 1.000000e-01 8.768857e-02 7.260290e-01 4.944994e-02 0.000000e+00 7.142857e-01 0.000000e+00 0.000000e+00 7.857143e-01 0.000000e+00 1.000000e+00 8.048803e-01 4.804704e-02 1.000000e+00 8.170334e-01 1.000000e-01 9.104181e-01 8.239631e-01 1.000000e-01 8.239138e-01 8.278300e-01 1.000000e-01 7.404864e-01 8.299404e-01 1.000000e-01 6.593067e-01 8.309913e-01 1.000000e-01 5.795172e-01 8.313132e-01 1.000000e-01 5.004104e-01 8.310082e-01 1.000000e-01 4.213758e-01 8.299827e-01 1.000000e-01 3.418279e-01 8.279137e-01 1.000000e-01 2.610566e-01 8.241091e-01 1.000000e-01 1.780747e-01 8.172740e-01 1.000000e-01 9.149074e-02 8.052085e-01 4.793765e-02 0.000000e+00 7.857143e-01 0.000000e+00 0.000000e+00 8.571429e-01 0.000000e+00 1.000000e+00 8.908843e-01 4.270303e-02 1.000000e+00 9.045964e-01 1.000000e-01 9.045828e-01 9.104477e-01 1.000000e-01 8.170154e-01 9.132246e-01 1.000000e-01 7.346732e-01 9.146113e-01 1.000000e-01 6.552915e-01 9.152702e-01 1.000000e-01 5.774808e-01 9.154694e-01 1.000000e-01 5.003834e-01 9.152807e-01 1.000000e-01 4.233918e-01 9.146381e-01 1.000000e-01 3.459532e-01 9.132832e-01 1.000000e-01 2.673559e-01 9.105782e-01 1.000000e-01 1.863842e-01 9.049197e-01 1.000000e-01 1.001877e-01 8.918165e-01 4.227631e-02 0.000000e+00 8.571429e-01 0.000000e+00 0.000000e+00 9.285714e-01 0.000000e+00 1.000000e+00 9.969488e-01 2.274950e-02 9.968716e-01 1.000000e+00 4.270306e-02 8.908746e-01 1.000000e+00 4.804703e-02 8.048767e-01 1.000000e+00 4.947993e-02 7.258816e-01 1.000000e+00 4.986067e-02 6.496947e-01 1.000000e+00 4.995623e-02 5.747166e-01 1.000000e+00 4.997592e-02 5.002424e-01 1.000000e+00 4.995533e-02 4.258632e-01 1.000000e+00 4.985101e-02 3.512504e-01 1.000000e+00 4.945016e-02 2.760590e-01 1.000000e+00 4.793781e-02 1.999039e-01 1.000000e+00 4.227626e-02 1.228833e-01 1.000000e+00 2.113868e-02 4.858134e-02 9.285714e-01 0.000000e+00 0.000000e+00 1.000000e+00 0.000000e+00 1.000000e+00 1.000000e+00 0.000000e+00 9.285714e-01 1.000000e+00 0.000000e+00 8.571429e-01 1.000000e+00 0.000000e+00 7.857143e-01 1.000000e+00 0.000000e+00 7.142857e-01 1.000000e+00 0.000000e+00 6.428571e-01 1.000000e+00 0.000000e+00 5.714286e-01 1.000000e+00 0.000000e+00 5.000000e-01 1.000000e+00 0.000000e+00 4.285714e-01 1.000000e+00 0.000000e+00 3.571429e-01 1.000000e+00 0.000000e+00 2.857143e-01 1.000000e+00 0.000000e+00 2.142857e-01 1.000000e+00 0.000000e+00 1.428571e-01 1.000000e+00 0.000000e+00 7.142857e-02 1.000000e+00 0.000000e+00 0.000000e+00